<svg width="32" height="32" viewBox="0 0 32 32" fill="none" xmlns="http://www.w3.org/2000/svg">
<path d="M16 32C24.8366 32 32 24.8366 32 16C32 7.16344 24.8366 0 16 0C7.16344 0 0 7.16344 0 16C0 24.8366 7.16344 32 16 32Z" fill="#ECF5EC"/>
<path d="M12.985 19.5581H19.792M12.985 22.3431H19.792M18.097 7.58905H23.241V25.473H9.53601V7.58905H18.097Z" stroke="#5C5C5C" stroke-linecap="round" stroke-linejoin="round"/>
<path d="M17.041 14.706L19.797 17.227M16.928 11.616C17.828 12.439 17.878 13.823 17.041 14.706C16.205 15.589 14.797 15.64 13.897 14.817C12.997 13.995 12.947 12.612 13.783 11.728C14.62 10.845 16.028 10.794 16.928 11.616Z" stroke="#42A047" stroke-linecap="round"/>
<path fill-rule="evenodd" clip-rule="evenodd" d="M14.436 8.65102L14.714 6.52502H17.852L18.342 8.65102H14.436Z" fill="#F1F1F1"/>
<path fill-rule="evenodd" clip-rule="evenodd" d="M14.436 8.65102L14.714 6.52502H17.852L18.342 8.65102H14.436Z" stroke="#5C5C5C" stroke-linecap="round" stroke-linejoin="round"/>
</svg>
