<svg width="32" height="32" viewBox="0 0 32 32" fill="none" xmlns="http://www.w3.org/2000/svg">
<g clip-path="url(#clip0_40_1487)">
<path d="M16 31.995C24.8358 31.995 31.9986 24.8327 31.9986 15.9975C31.9986 7.16233 24.8358 0 16 0C7.16424 0 0.00143433 7.16233 0.00143433 15.9975C0.00143433 24.8327 7.16424 31.995 16 31.995Z" fill="#ECF5ED"/>
<path d="M17.9398 6.66895H13.6902M19.8797 21.2767H12.0004C11.673 21.2793 11.3484 21.2171 11.0452 21.0937C10.7421 20.9703 10.4663 20.788 10.2339 20.5575C10.0016 20.327 9.81711 20.0528 9.69124 19.7506C9.56537 19.4485 9.50057 19.1244 9.50058 18.7971V9.41852C9.50058 9.15334 9.60593 8.89903 9.79345 8.71152C9.98097 8.52401 10.2353 8.41867 10.5005 8.41867H21.3595C21.6247 8.41867 21.879 8.52401 22.0666 8.71152C22.2541 8.89903 22.3594 9.15334 22.3594 9.41852V18.7971C22.3594 19.4547 22.0982 20.0854 21.6331 20.5504C21.1681 21.0154 20.5373 21.2767 19.8797 21.2767V21.2767Z" stroke="#5C5C5C" stroke-linecap="round"/>
<path fill-rule="evenodd" clip-rule="evenodd" d="M12.9103 18.0472C12.9103 18.2172 12.8598 18.3835 12.7654 18.5249C12.6709 18.6663 12.5366 18.7765 12.3794 18.8416C12.2223 18.9067 12.0494 18.9237 11.8826 18.8905C11.7158 18.8573 11.5626 18.7755 11.4423 18.6552C11.322 18.5349 11.2401 18.3817 11.207 18.2149C11.1738 18.0481 11.1908 17.8752 11.2559 17.7181C11.321 17.561 11.4312 17.4267 11.5726 17.3322C11.714 17.2377 11.8803 17.1873 12.0504 17.1873C12.2784 17.1873 12.4971 17.2779 12.6584 17.4392C12.8197 17.6004 12.9103 17.8191 12.9103 18.0472ZM20.6296 18.0472C20.6296 18.2172 20.5792 18.3835 20.4847 18.5249C20.3902 18.6663 20.2559 18.7765 20.0987 18.8416C19.9416 18.9067 19.7687 18.9237 19.6019 18.8905C19.4351 18.8573 19.2819 18.7755 19.1616 18.6552C19.0413 18.5349 18.9594 18.3817 18.9263 18.2149C18.8931 18.0481 18.9101 17.8752 18.9752 17.7181C19.0403 17.561 19.1505 17.4267 19.2919 17.3322C19.4333 17.2377 19.5996 17.1873 19.7697 17.1873C19.9977 17.1873 20.2165 17.2779 20.3777 17.4392C20.539 17.6004 20.6296 17.8191 20.6296 18.0472Z" fill="#42A047"/>
<path d="M10.8605 21.2767L8.50067 25.696M20.7696 21.2767L23.1294 25.696M10.7105 25.1161H20.9296M12.3903 23.1964H19.2397M15.58 6.66895L16.43 7.5988V8.41867L15.58 6.66895ZM19.8697 15.1376H12.0004C11.8412 15.1376 11.6886 15.0744 11.5761 14.9619C11.4636 14.8494 11.4004 14.6968 11.4004 14.5377V11.0783C11.4004 10.9192 11.4636 10.7666 11.5761 10.6541C11.6886 10.5416 11.8412 10.4784 12.0004 10.4784H19.8997C19.9784 10.4784 20.0565 10.4939 20.1292 10.524C20.202 10.5542 20.2682 10.5984 20.3239 10.6541C20.3796 10.7098 20.4238 10.7759 20.4539 10.8487C20.4841 10.9215 20.4996 10.9995 20.4996 11.0783V14.5377C20.4996 14.6165 20.4841 14.6945 20.4539 14.7673C20.4238 14.8401 20.3796 14.9062 20.3239 14.9619C20.2682 15.0176 20.202 15.0618 20.1292 15.092C20.0565 15.1221 19.9784 15.1376 19.8997 15.1376H19.8697Z" stroke="#5C5C5C" stroke-linecap="round"/>
<path fill-rule="evenodd" clip-rule="evenodd" d="M16.07 12.568L18.4898 8.99859C18.7759 8.56447 18.9443 8.06343 18.9784 7.54462C19.0124 7.02582 18.9111 6.50706 18.6842 6.03924C18.4573 5.57142 18.1128 5.17059 17.6843 4.87608C17.2558 4.58157 16.7581 4.4035 16.24 4.35931H15.77C15.252 4.4035 14.7543 4.58157 14.3258 4.87608C13.8973 5.17059 13.5527 5.57142 13.3258 6.03924C13.0989 6.50706 12.9976 7.02582 13.0317 7.54462C13.0657 8.06343 13.2341 8.56447 13.5202 8.99859L15.94 12.618L16.01 12.758L16.07 12.568Z" fill="#ECF5ED"/>
<path d="M16.07 12.568L18.4898 8.99859C18.7759 8.56447 18.9443 8.06343 18.9784 7.54462C19.0124 7.02582 18.9111 6.50706 18.6842 6.03924C18.4573 5.57142 18.1128 5.17059 17.6843 4.87608C17.2558 4.58157 16.7581 4.4035 16.24 4.35931H15.77C15.252 4.4035 14.7543 4.58157 14.3258 4.87608C13.8973 5.17059 13.5527 5.57142 13.3258 6.03924C13.0989 6.50706 12.9976 7.02582 13.0317 7.54462C13.0657 8.06343 13.2341 8.56447 13.5202 8.99859L15.94 12.618L16.01 12.758L16.07 12.568Z" fill="#ECF5ED" stroke="#ECF5ED" stroke-width="2.5" stroke-linecap="round" stroke-linejoin="round"/>
<path d="M16.07 12.568L18.4898 8.99859C18.7759 8.56447 18.9443 8.06343 18.9784 7.54462C19.0124 7.02582 18.9111 6.50706 18.6842 6.03924C18.4573 5.57142 18.1128 5.17059 17.6843 4.87608C17.2558 4.58157 16.7581 4.4035 16.24 4.35931H15.77C15.252 4.4035 14.7543 4.58157 14.3258 4.87608C13.8973 5.17059 13.5527 5.57142 13.3258 6.03924C13.0989 6.50706 12.9976 7.02582 13.0317 7.54462C13.0657 8.06343 13.2341 8.56447 13.5202 8.99859L15.94 12.618L16.01 12.758L16.07 12.568Z" stroke="#5C5C5C" stroke-linecap="round" stroke-linejoin="round"/>
<path fill-rule="evenodd" clip-rule="evenodd" d="M17.4499 7.31885C17.4499 7.60559 17.3648 7.88589 17.2055 8.12431C17.0462 8.36272 16.8198 8.54854 16.5549 8.65827C16.2899 8.768 15.9984 8.79671 15.7172 8.74077C15.4359 8.68483 15.1776 8.54675 14.9748 8.344C14.772 8.14125 14.6339 7.88292 14.578 7.60169C14.5221 7.32046 14.5508 7.02896 14.6605 6.76405C14.7702 6.49914 14.9561 6.27271 15.1945 6.11341C15.4329 5.95411 15.7133 5.86908 16 5.86908C16.3845 5.86908 16.7533 6.02182 17.0252 6.29371C17.2971 6.56559 17.4499 6.93435 17.4499 7.31885Z" fill="#42A047"/>
</g>
<defs>
<clipPath id="clip0_40_1487">
<rect width="31.9971" height="31.995" fill="white" transform="translate(0.00143433)"/>
</clipPath>
</defs>
</svg>
