<svg width="32" height="32" viewBox="0 0 32 32" fill="none" xmlns="http://www.w3.org/2000/svg">
    <g clip-path="url(#yopfjxufja)">
        <path d="M16 32c8.837 0 16-7.163 16-16S24.837 0 16 0 0 7.163 0 16s7.163 16 16 16z" fill="#ECF5EC"/>
        <path d="M19.615 21h-8.257a2.37 2.37 0 0 1-2.184-1.489c-.117-.29-.176-.6-.174-.914V8.922a.924.924 0 0 1 .598-.864A.915.915 0 0 1 9.963 8h11.074a.915.915 0 0 1 .889.557.922.922 0 0 1 .074.364v9.675a2.397 2.397 0 0 1-.702 1.687 2.381 2.381 0 0 1-1.683.698V21zM17.812 6h-4.466" stroke="#5C5C5C" stroke-linecap="round"/>
        <path fill-rule="evenodd" clip-rule="evenodd" d="M12.904 17.95c.01.2-.038.398-.137.569a.97.97 0 0 1-.417.39.912.912 0 0 1-.554.078.936.936 0 0 1-.5-.262 1.013 1.013 0 0 1-.274-.51 1.045 1.045 0 0 1 .046-.584.992.992 0 0 1 .35-.457.922.922 0 0 1 .533-.173.867.867 0 0 1 .671.26.99.99 0 0 1 .282.69zm8.096 0a.983.983 0 0 1-.152.528.916.916 0 0 1-.407.35.865.865 0 0 1-.522.054.892.892 0 0 1-.464-.26.965.965 0 0 1-.247-.486.993.993 0 0 1 .051-.549.941.941 0 0 1 .333-.426.875.875 0 0 1 .85-.09c.111.047.212.117.296.205a.98.98 0 0 1 .262.674z" fill="#42A047"/>
        <path d="M10.425 21.353 8 26m12.575-4.647L23 26m-13.06-.61h11.138m-8.899-2.014h6.726M15.276 6l.439.906.438.907L16 6.906 15.276 6zm-.298 8.903h-3.443a.582.582 0 0 1-.41-.18.609.609 0 0 1-.168-.421v-3.693a.614.614 0 0 1 .172-.425.588.588 0 0 1 .416-.176h3.433a.582.582 0 0 1 .41.179.609.609 0 0 1 .168.422v3.693c0 .157-.06.309-.169.421a.582.582 0 0 1-.41.18z" stroke="#5C5C5C" stroke-linecap="round"/>
        <path d="M19.434 15h-7.868a.545.545 0 0 1-.4-.18.642.642 0 0 1-.166-.434v-3.772c0-.163.06-.319.166-.434a.545.545 0 0 1 .4-.18h7.868c.15 0 .294.065.4.18a.642.642 0 0 1 .166.434v3.772c0 .163-.06.319-.166.434a.545.545 0 0 1-.4.18v0z" stroke="#5C5C5C" stroke-linecap="round"/>
    </g>
    <defs>
        <clipPath id="yopfjxufja">
            <path fill="#fff" d="M0 0h32v32H0z"/>
        </clipPath>
    </defs>
</svg>