<svg width="30" height="30" viewBox="0 0 30 30" fill="none" xmlns="http://www.w3.org/2000/svg">
  <circle cx="15" cy="15" r="15" fill="white"/>
  <path d="M20.3125 5H9.6875C7.09867 5 5 7.09867 5 9.6875V20.3125C5 22.9013 7.09867 25 9.6875 25H20.3125C22.9013 25 25 22.9013 25 20.3125V9.6875C25 7.09867 22.9013 5 20.3125 5Z" fill="url(#paint0_radial_1_7673)"/>
  <path d="M20.3125 5H9.6875C7.09867 5 5 7.09867 5 9.6875V20.3125C5 22.9013 7.09867 25 9.6875 25H20.3125C22.9013 25 25 22.9013 25 20.3125V9.6875C25 7.09867 22.9013 5 20.3125 5Z" fill="url(#paint1_radial_1_7673)"/>
  <path d="M15.0007 7.1875C12.879 7.1875 12.6127 7.1968 11.7794 7.23469C10.9477 7.27281 10.3799 7.40445 9.8832 7.59766C9.3693 7.79719 8.93344 8.06414 8.49922 8.49852C8.06461 8.93281 7.79766 9.36867 7.5975 9.88234C7.40375 10.3792 7.27195 10.9472 7.23453 11.7785C7.19727 12.6119 7.1875 12.8783 7.1875 15.0001C7.1875 17.1219 7.19688 17.3873 7.23469 18.2206C7.27297 19.0523 7.40461 19.6201 7.59766 20.1168C7.79734 20.6307 8.0643 21.0666 8.49867 21.5008C8.93281 21.9354 9.36867 22.203 9.88219 22.4025C10.3793 22.5957 10.9471 22.7273 11.7787 22.7655C12.612 22.8034 12.8781 22.8127 14.9998 22.8127C17.1217 22.8127 17.3872 22.8034 18.2205 22.7655C19.0522 22.7273 19.6205 22.5957 20.1177 22.4025C20.6313 22.203 21.0666 21.9354 21.5006 21.5008C21.9352 21.0666 22.2021 20.6307 22.4023 20.117C22.5944 19.6201 22.7262 19.0522 22.7653 18.2208C22.8027 17.3875 22.8125 17.1219 22.8125 15.0001C22.8125 12.8783 22.8027 12.612 22.7653 11.7787C22.7262 10.947 22.5944 10.3793 22.4023 9.88258C22.2021 9.36867 21.9352 8.93281 21.5006 8.49852C21.0661 8.06398 20.6315 7.79703 20.1172 7.59773C19.6191 7.40445 19.0511 7.27273 18.2194 7.23469C17.386 7.1968 17.1207 7.1875 14.9983 7.1875H15.0007ZM14.2998 8.59539C14.5079 8.59508 14.74 8.59539 15.0007 8.59539C17.0867 8.59539 17.3339 8.60289 18.1577 8.64031C18.9194 8.67516 19.3328 8.80242 19.6082 8.90938C19.9728 9.05094 20.2327 9.22023 20.506 9.49375C20.7795 9.76719 20.9487 10.0276 21.0906 10.3922C21.1976 10.6672 21.325 11.0806 21.3597 11.8423C21.3971 12.6659 21.4052 12.9133 21.4052 14.9983C21.4052 17.0833 21.3971 17.3307 21.3597 18.1542C21.3248 18.9159 21.1976 19.3294 21.0906 19.6045C20.9491 19.9691 20.7795 20.2287 20.506 20.502C20.2326 20.7754 19.973 20.9446 19.6082 21.0863C19.3331 21.1937 18.9194 21.3206 18.1577 21.3555C17.3341 21.3929 17.0867 21.401 15.0007 21.401C12.9146 21.401 12.6673 21.3929 11.8438 21.3555C11.0821 21.3203 10.6687 21.193 10.393 21.0861C10.0285 20.9445 9.76805 20.7752 9.49461 20.5018C9.22117 20.2284 9.05195 19.9686 8.91 19.6038C8.80305 19.3287 8.67562 18.9153 8.64094 18.1536C8.60352 17.33 8.59602 17.0827 8.59602 14.9963C8.59602 12.91 8.60352 12.664 8.64094 11.8404C8.67578 11.0787 8.80305 10.6652 8.91 10.3898C9.05164 10.0252 9.22117 9.76484 9.49469 9.49141C9.7682 9.21797 10.0285 9.04867 10.3931 8.9068C10.6685 8.79938 11.0821 8.67242 11.8438 8.63742C12.5645 8.60484 12.8438 8.59508 14.2998 8.59344V8.59539ZM19.171 9.89258C18.6534 9.89258 18.2335 10.3121 18.2335 10.8298C18.2335 11.3473 18.6534 11.7673 19.171 11.7673C19.6886 11.7673 20.1085 11.3473 20.1085 10.8298C20.1085 10.3122 19.6886 9.89227 19.171 9.89227V9.89258ZM15.0007 10.988C12.7851 10.988 10.9887 12.7844 10.9887 15.0001C10.9887 17.2158 12.7851 19.0113 15.0007 19.0113C17.2164 19.0113 19.0122 17.2158 19.0122 15.0001C19.0122 12.7845 17.2163 10.988 15.0005 10.988H15.0007ZM15.0007 12.3959C16.4389 12.3959 17.6049 13.5617 17.6049 15.0001C17.6049 16.4383 16.4389 17.6043 15.0007 17.6043C13.5625 17.6043 12.3966 16.4383 12.3966 15.0001C12.3966 13.5617 13.5624 12.3959 15.0007 12.3959Z" fill="white"/>
  <defs>
    <radialGradient id="paint0_radial_1_7673" cx="0" cy="0" r="1" gradientUnits="userSpaceOnUse" gradientTransform="translate(10.3125 26.5404) rotate(-90) scale(19.8215 18.4355)">
      <stop stop-color="#FFDD55"/>
      <stop offset="0.1" stop-color="#FFDD55"/>
      <stop offset="0.5" stop-color="#FF543E"/>
      <stop offset="1" stop-color="#C837AB"/>
    </radialGradient>
    <radialGradient id="paint1_radial_1_7673" cx="0" cy="0" r="1" gradientUnits="userSpaceOnUse" gradientTransform="translate(1.64992 6.4407) rotate(78.681) scale(8.86031 36.5225)">
      <stop stop-color="#3771C8"/>
      <stop offset="0.128" stop-color="#3771C8"/>
      <stop offset="1" stop-color="#6600FF" stop-opacity="0"/>
    </radialGradient>
  </defs>
</svg>