<svg width="32" height="32" viewBox="0 0 32 32" fill="none" xmlns="http://www.w3.org/2000/svg">
<g clip-path="url(#clip0_40_2403)">
<path d="M16 31.995C24.8358 31.995 31.9986 24.8327 31.9986 15.9975C31.9986 7.16233 24.8358 0 16 0C7.16424 0 0.00143433 7.16233 0.00143433 15.9975C0.00143433 24.8327 7.16424 31.995 16 31.995Z" fill="#ECF5ED"/>
<path d="M24.9222 20.9967H14.5482C14.4207 20.9967 14.2984 20.9484 14.2082 20.8624C14.1181 20.7764 14.0674 20.6597 14.0674 20.5381V11.4569C14.0674 11.3353 14.1181 11.2186 14.2082 11.1326C14.2984 11.0466 14.4207 10.9983 14.5482 10.9983H24.9318C25.0731 10.9983 25.213 11.025 25.3434 11.077C25.4738 11.1289 25.592 11.2051 25.6913 11.301C25.7895 11.3931 25.8674 11.5031 25.9202 11.6244C25.9731 11.7457 25.9999 11.8759 25.999 12.0073V14.1538C25.9999 14.2851 25.9731 14.4154 25.9202 14.5367C25.8674 14.658 25.7895 14.768 25.6913 14.8601C25.5916 14.9547 25.473 15.0295 25.3426 15.0799C25.2121 15.1303 25.0725 15.1553 24.9318 15.1536H24.6049C24.3703 15.1536 24.1453 15.2425 23.9794 15.4008C23.8136 15.559 23.7204 15.7737 23.7204 15.9975C23.7204 16.2213 23.8136 16.436 23.9794 16.5942C24.1453 16.7525 24.3703 16.8414 24.6049 16.8414H24.9222C25.0625 16.8358 25.2026 16.8582 25.3334 16.9071C25.4642 16.9561 25.5828 17.0306 25.6817 17.1258C25.7822 17.2205 25.8621 17.3333 25.9165 17.4577C25.971 17.5821 25.999 17.7156 25.999 17.8504V19.9877C26.0011 20.1214 25.9739 20.2541 25.9193 20.3773C25.8647 20.5005 25.7838 20.6115 25.6817 20.7032C25.479 20.8927 25.206 20.9982 24.9222 20.9967ZM15.0289 20.0794H24.9222C24.9535 20.0886 24.987 20.0886 25.0183 20.0794V17.8779L24.9029 17.7862H24.5857C24.0961 17.7862 23.6265 17.6007 23.2804 17.2704C22.9342 16.9401 22.7397 16.4921 22.7397 16.025C22.7397 15.5579 22.9342 15.11 23.2804 14.7797C23.6265 14.4494 24.0961 14.2638 24.5857 14.2638H24.9029L25.499 14.1813H25.0183V12.0073L24.9029 11.9156H15.0289V20.0794ZM12.5003 20.9967H7.11616C6.83339 20.9964 6.56024 20.8987 6.34701 20.7215C6.23918 20.6288 6.15273 20.5156 6.09315 20.3893C6.03357 20.263 6.00215 20.1262 6.00089 19.9877V17.8504C6.00344 17.7188 6.03568 17.5892 6.0954 17.4705C6.15512 17.3518 6.24094 17.2467 6.34701 17.1625C6.55588 16.9774 6.83111 16.8756 7.11616 16.8781H7.46228C7.58938 16.896 7.71903 16.8876 7.8424 16.8534C7.96578 16.8193 8.07999 16.7601 8.17725 16.68C8.27451 16.5999 8.35254 16.5008 8.40603 16.3894C8.45952 16.2779 8.4872 16.1568 8.4872 16.0342C8.4872 15.9116 8.45952 15.7905 8.40603 15.679C8.35254 15.5676 8.27451 15.4685 8.17725 15.3884C8.07999 15.3083 7.96578 15.2491 7.8424 15.215C7.71903 15.1808 7.58938 15.1724 7.46228 15.1903H7.11616C6.82961 15.1977 6.55159 15.0968 6.34269 14.9095C6.13378 14.7222 6.01093 14.4638 6.00089 14.1905V12.0073C6.00432 11.757 6.10426 11.5168 6.2816 11.3323C6.45895 11.1479 6.70129 11.0322 6.96233 11.0075H12.5195C12.647 11.0075 12.7693 11.0558 12.8594 11.1418C12.9496 11.2278 13.0002 11.3445 13.0002 11.4661V20.5473C12.9977 20.6673 12.9459 20.7816 12.8561 20.8656C12.7662 20.9497 12.6453 20.9967 12.5195 20.9967H12.5003ZM7.11616 17.7587C7.06992 17.7583 7.02525 17.7747 6.99118 17.8046V19.9877C7.04886 20.0703 7.09693 20.0794 7.14501 20.0794H12.0484V11.9156H7.05848C7.05848 11.9156 6.96233 11.9706 6.96233 12.0073V14.1538C6.96233 14.1538 7.02963 14.2363 7.11616 14.2363H7.46228C7.72053 14.2111 7.98144 14.2379 8.22815 14.315C8.47486 14.392 8.70189 14.5176 8.89455 14.6836C9.08722 14.8496 9.24123 15.0523 9.34665 15.2786C9.45206 15.5049 9.50653 15.7498 9.50653 15.9975C9.50653 16.2452 9.45206 16.4901 9.34665 16.7164C9.24123 16.9427 9.08722 17.1455 8.89455 17.3114C8.70189 17.4774 8.47486 17.603 8.22815 17.68C7.98144 17.7571 7.72053 17.7839 7.46228 17.7587H7.11616Z" fill="#5C5C5C"/>
</g>
<path d="M19.824 16.0767H21.4495M18.237 14.3751C18.775 14.9056 18.8052 15.7983 18.3049 16.3695C18.1904 16.5043 18.0491 16.6138 17.8901 16.6912C17.731 16.7685 17.5576 16.812 17.3809 16.8188C17.2042 16.8256 17.028 16.7956 16.8634 16.7307C16.6989 16.6659 16.5496 16.5675 16.4251 16.442C15.8863 15.9107 15.8553 15.018 16.3572 14.4468C16.4718 14.3123 16.6131 14.203 16.7721 14.1259C16.9311 14.0488 17.1044 14.0055 17.281 13.9987C17.4576 13.992 17.6336 14.022 17.7981 14.0868C17.9625 14.1515 18.1117 14.2497 18.2362 14.3751H18.237ZM18.3049 16.3695L19.9523 17.9972L18.3049 16.3695ZM19.824 14.4219H21.4495H19.824Z" stroke="#42A047" stroke-linecap="round" stroke-linejoin="round"/>
<defs>
<clipPath id="clip0_40_2403">
<rect width="31.9971" height="31.995" fill="white" transform="translate(0.00143433)"/>
</clipPath>
</defs>
</svg>
